inDegrees=no
num_controls=7
num_derivatives=13
num_iterations=119
num_multipliers=7
num_parameters=0
num_slacks=7
num_states=26
objective=0.448395
objective_accelerations=0.049557
objective_balance=0.007536
objective_effort=0.036667
objective_height=0.349696
objective_ligament=0.004939
solver_duration=1744.129852
status=Solve_Succeeded
success=true
DataType=double
version=3
OpenSimVersion=4.5
endheader
time	/jointset/ground_pelvis/pelvis_tilt/value	/jointset/ground_pelvis/pelvis_tx/value	/jointset/ground_pelvis/pelvis_ty/value	/jointset/hip_l/hip_flexion_l/value	/jointset/hip_l/hip_adduction_l/value	/jointset/hip_l/hip_rotation_l/value	/jointset/back/lumbar_extension/value	/jointset/patellofemoral_l/patellar_flexion_l/value	/jointset/knee_l/knee_flexion_l/value	/jointset/knee_l/knee_adduction_l/value	/jointset/knee_l/knee_rotation_l/value	/jointset/ankle_l/ankle_angle_l/value	/jointset/subtalar_l/subtalar_angle_l/value	/jointset/ground_pelvis/pelvis_tilt/speed	/jointset/ground_pelvis/pelvis_tx/speed	/jointset/ground_pelvis/pelvis_ty/speed	/jointset/hip_l/hip_flexion_l/speed	/jointset/hip_l/hip_adduction_l/speed	/jointset/hip_l/hip_rotation_l/speed	/jointset/back/lumbar_extension/speed	/jointset/patellofemoral_l/patellar_flexion_l/speed	/jointset/knee_l/knee_flexion_l/speed	/jointset/knee_l/knee_adduction_l/speed	/jointset/knee_l/knee_rotation_l/speed	/jointset/ankle_l/ankle_angle_l/speed	/jointset/subtalar_l/subtalar_angle_l/speed	/forceset/tau_hip_flexion_l	/forceset/tau_hip_adduction_l	/forceset/tau_hip_rotation_l	/forceset/tau_knee_flexion_l	/forceset/tau_ankle_angle_l	/forceset/tau_subtalar_angle_l	/forceset/tau_lumbar_extension	lambda_cid13_p0	lambda_cid13_p1	lambda_cid13_p2	lambda_cid13_p3	lambda_cid13_p4	lambda_cid13_p5	lambda_cid14_p0	/jointset/ground_pelvis/pelvis_tilt/accel	/jointset/ground_pelvis/pelvis_tx/accel	/jointset/ground_pelvis/pelvis_ty/accel	/jointset/hip_l/hip_flexion_l/accel	/jointset/hip_l/hip_adduction_l/accel	/jointset/hip_l/hip_rotation_l/accel	/jointset/back/lumbar_extension/accel	/jointset/patellofemoral_l/patellar_flexion_l/accel	/jointset/knee_l/knee_flexion_l/accel	/jointset/knee_l/knee_adduction_l/accel	/jointset/knee_l/knee_rotation_l/accel	/jointset/ankle_l/ankle_angle_l/accel	/jointset/subtalar_l/subtalar_angle_l/accel	gamma_cid13_p0	gamma_cid13_p1	gamma_cid13_p2	gamma_cid13_p3	gamma_cid13_p4	gamma_cid13_p5	gamma_cid14_p0
0	-0.1598569022203281	0.05845924211531168	0.8979883637256831	0.3774924667018715	-0.2592881571534814	-0.2703995270378745	-0.01265067647494873	0.03223648243721496	0.03223648243721463	-0.1745328217713425	0.1720742376277868	-0.04231377076293093	-0.009442427396845305	0	0	0	0	0	0	0	0	0	0	0	0	0	0.1509670499333688	-0.07656427452518773	-0.05148905749356639	-0.3070793084340143	0.3124422482544367	-0.04839063565307478	-0.09456673282544231	57.92896205967792	4.642333348727909	5.974513360013587	-5.750937102954992	-590.1551049138678	-68.7434179537475	-38.99702911804233	-4.279663993107235	-2.104730940016341	-1.100562321338584	12.36959080814059	-1.232449492677657	2.963816224304502	-5.671704299147737	8.972931995369178	8.972931995377404	0.07270774499368825	0.1423335762014445	0.9633765121149105	-1.037275866468405	-3.893803945077628e-08	4.687114001003332e-08	9.577513086155298e-08	1.383898386171936e-08	-2.290450072809024e-09	-5.142677251573725e-08	-1.506024857044978e-08
0.01	-0.1600634568270319	0.05835412473837926	0.897934468228918	0.3780969484486139	-0.2593494741510651	-0.2702517496171922	-0.01293641718607996	0.03267484004469909	0.03267484004471684	-0.1745310870251856	0.1720783220134885	-0.0422696743026678	-0.009494921495797176	-0.04106109454908474	-0.02104816236450062	-0.01074865205192498	0.1204427987654742	-0.01218994952325704	0.0294320817485557	-0.05686749028731632	0.08727684870842094	0.08727684870847616	0.0003688421077081814	0.0007964620504843662	0.008628366836275804	-0.01047041588479568	0.1416476271488916	-0.08587170296315476	-0.04913619223850511	-0.2924681765496268	0.2879869812985029	-0.03040826029540879	-0.08779926089374279	50.71788164431354	-1.644380141096423	6.679318611407212	-0.8647627389584579	-590.7347579861154	-80.37942180244227	-39.00965784131733	-3.981864229897732	-2.10855916361813	-1.05745001006983	11.81358553960973	-1.201271110384166	2.914380881183104	-5.652173602590015	8.545863402066006	8.545863402067996	0.02227717856199838	0.04522843515876482	0.7839248934800191	-1.047681885303466	-5.162041076794356e-08	9.083882549557797e-08	1.111709748344482e-07	2.181243377798313e-08	-7.698504052990365e-08	-3.753864878514943e-09	-1.783730500528388e-08
0.02	-0.1606731287880484	0.05803778568201153	0.897773999539043	0.3798922504087824	-0.2595304913295279	-0.2698133560328139	-0.01378241324189824	0.03397412655798517	0.03397412655798452	-0.1745250029108299	0.1720897562028016	-0.04214502254922282	-0.009651271240760709	-0.08062347086169999	-0.04224433588706409	-0.02131463862193268	0.2381640426853038	-0.02394003617589374	0.05812323273919295	-0.1120510689372836	0.1721857811563378	0.1721857811563605	0.0008698736115155283	0.001469960728444933	0.0161110586363935	-0.02077112920232681	0.1323282043644265	-0.09517913140112048	-0.04678332698362266	-0.2778570446652203	0.2635317143425654	-0.01242588493774	-0.08103178896202487	43.58309046249326	-7.944057685203044	7.385744600220155	3.908280612150553	-590.1327692851269	-91.9134583440226	-39.04704157103966	-3.979920345813315	-2.13433317162893	-1.06402922495514	11.82527983901165	-1.144476918553723	2.815630072720806	-5.3349219716779	8.499348743268355	8.499348743259048	0.0991456242132614	0.1177409016967013	0.7342415048832299	-1.003335353015637	-6.430278208511084e-08	1.348065109811226e-07	1.265668188073434e-07	2.97858836942469e-08	-1.516796309869983e-07	4.391904275870736e-08	-2.061436144011797e-08
0.03	-0.1616718734813453	0.05751057395805367	0.8975086773788797	0.3828501055736347	-0.2598267029810958	-0.2690918378647371	-0.01517003352366364	0.03611096014278306	0.03611096014277507	-0.1745132971114373	0.1721075607351511	-0.04194881514337782	-0.009909116900118047	-0.1189336100806563	-0.06303767742922767	-0.03172417753961224	0.3527905662386285	-0.03522885865418018	0.08604849651988533	-0.1650506736525706	0.2547935019223844	0.2547935019223763	0.001464315397355971	0.00208946983303712	0.02317768891191738	-0.03071534275709349	0.1275181767643388	-0.08967819110865778	-0.046330272102836	-0.2751833069365789	0.2632190349150632	-0.01596338949550578	-0.07675536835082254	43.3900060451735	-6.483814460972028	7.278475950298998	2.852268606051034	-590.2343034220205	-88.21855570533678	-39.1079921624737	-3.727790142716686	-2.027778934904063	-1.025604482234716	11.18886382665633	-1.110090101612128	2.761171910221826	-5.219132656884248	8.083372795392052	8.083372795393283	0.03857907910007585	0.03381929985182523	0.6999605012912932	-0.9776005174240163	-8.6660389375091e-08	1.375033091490439e-07	1.588910192989215e-07	4.99021179174344e-08	-2.669796412464259e-07	3.767986903358209e-08	-2.66573384775086e-08
